<svg width="22" height="15" viewBox="0 0 22 15" fill="none" xmlns="http://www.w3.org/2000/svg">
<g clip-path="url(#clip0_22_2)">
<path fill-rule="evenodd" clip-rule="evenodd" d="M0.31665 0H21.3167V15H0.31665V0Z" fill="url(#paint0_linear_22_2)"/>
<path fill-rule="evenodd" clip-rule="evenodd" d="M0.31665 0H21.3167V10H0.31665V0Z" fill="url(#paint1_linear_22_2)"/>
<path fill-rule="evenodd" clip-rule="evenodd" d="M0.31665 10H21.3167V15H0.31665V10Z" fill="url(#paint2_linear_22_2)"/>
<path fill-rule="evenodd" clip-rule="evenodd" d="M3.31665 12.75V15H0.31665V0H3.31665V2.25L2.81665 3L3.31665 3.75V5.25L2.81665 6L3.31665 6.75V8.25L2.81665 9L3.31665 9.75V11.25L2.81665 12L3.31665 12.75Z" fill="url(#paint3_linear_22_2)"/>
<path fill-rule="evenodd" clip-rule="evenodd" d="M-1.18335 3L-0.18335 1.5L0.81665 3L-0.18335 4.5L-1.18335 3ZM-1.18335 6L-0.18335 4.5L0.81665 6L-0.18335 7.5L-1.18335 6ZM-1.18335 9L-0.18335 7.5L0.81665 9L-0.18335 10.5L-1.18335 9ZM-1.18335 12L-0.18335 10.5L0.81665 12L-0.18335 13.5L-1.18335 12ZM0.81665 1.5L1.81665 0L2.81665 1.5L1.81665 3L0.81665 1.5ZM0.81665 4.5L1.81665 3L2.81665 4.5L1.81665 6L0.81665 4.5ZM0.81665 7.5L1.81665 6L2.81665 7.5L1.81665 9L0.81665 7.5ZM0.81665 10.5L1.81665 9L2.81665 10.5L1.81665 12L0.81665 10.5ZM0.81665 13.5L1.81665 12L2.81665 13.5L1.81665 15L0.81665 13.5Z" fill="url(#paint4_linear_22_2)"/>
</g>
<defs>
<linearGradient id="paint0_linear_22_2" x1="1050.32" y1="0" x2="1050.32" y2="1500" gradientUnits="userSpaceOnUse">
<stop stop-color="white"/>
<stop offset="1" stop-color="#F0F0F0"/>
</linearGradient>
<linearGradient id="paint1_linear_22_2" x1="1050.32" y1="0" x2="1050.32" y2="1000" gradientUnits="userSpaceOnUse">
<stop stop-color="#E54252"/>
<stop offset="1" stop-color="#C63442"/>
</linearGradient>
<linearGradient id="paint2_linear_22_2" x1="1050.32" y1="10" x2="1050.32" y2="510" gradientUnits="userSpaceOnUse">
<stop stop-color="#5CBE6B"/>
<stop offset="1" stop-color="#4EA55B"/>
</linearGradient>
<linearGradient id="paint3_linear_22_2" x1="150.317" y1="0" x2="150.317" y2="1500" gradientUnits="userSpaceOnUse">
<stop stop-color="white"/>
<stop offset="1" stop-color="#F0F0F0"/>
</linearGradient>
<linearGradient id="paint4_linear_22_2" x1="198.817" y1="0" x2="198.817" y2="1500" gradientUnits="userSpaceOnUse">
<stop stop-color="#E54252"/>
<stop offset="1" stop-color="#C63442"/>
</linearGradient>
<clipPath id="clip0_22_2">
<rect width="21" height="15" fill="white" transform="translate(0.31665)"/>
</clipPath>
</defs>
</svg>
