<svg width="12" height="11" viewBox="0 0 12 11" fill="none" xmlns="http://www.w3.org/2000/svg">
<rect x="1.40338" y="3.03847" width="7.5505" height="7.46154" stroke="#8E95AA"/>
<rect width="3.09314" height="2.16849" transform="matrix(0.710795 -0.7034 0.710795 0.7034 6.42279 4.02209)" fill="white"/>
<path d="M11.5111 1C11.5111 0.725305 11.2861 0.502621 11.0085 0.502621L6.48501 0.502621C6.20743 0.502621 5.9824 0.725305 5.9824 1C5.9824 1.27469 6.20743 1.49738 6.48501 1.49738L10.5059 1.49738L10.5059 5.47641C10.5059 5.7511 10.7309 5.97379 11.0085 5.97379C11.2861 5.97379 11.5111 5.7511 11.5111 5.47641L11.5111 1ZM5.67974 6.9767L11.3639 1.3517L10.6531 0.6483L4.96894 6.2733L5.67974 6.9767Z" fill="#8E95AA"/>
</svg>
